:SAMPLES-PER-SECOND 30
:FRAME-RANGE 1-1700
:FULLY-SPECIFIED
:DEGREES
372
root  23.9524 40.6057 -66.1863 64.6563 82.4243 72.3666
RightUpLeg  -1.24748 -2.7262 4.70929
RightLeg  17.8674 15.7557 5.41267
RightFoot  4.64981 -4.18498 29.4139
RightToes  -1.16417e-010 0 -3.6325e-017
Spine  20.1418 -0.927835 -10.709
Spine1  -1.92223 -6.36345 11.1957
HEad  -18.5084 -39.6037 20.2207
LeftShoulder1  3.17397 -6.37544 -26.0033
LeftArm  44.5366 -39.5682 -91.9149
LeftForeArm  25.5085 -4.82171 -17.9436
LeftHand  -0.0280068 5.57012 0.118137
RightShoulder  15.472 27.378 43.4396
RightArm  47.342 15.2214 22.3544
RightForeArm  11.1862 23.5376 4.48031
RightHand  1.50498 7.80911 12.7666
LeftUpLeg  -103.609 20.1519 -83.5856
LeftLeg  116.862 -4.68657 7.86275
LeftFoot  17.0651 1.19302 -5.12895
LeftToes  1.03528e-008 1.55373e-010 -2.26046e-010
373
root  23.7884 40.9913 -66.013 36.1026 79.5351 43.0891
RightUpLeg  -4.13894 -4.35148 2.65218
RightLeg  21.8977 12.1569 5.12462
RightFoot  1.79794 -2.91576 25.0506
RightToes  -1.16417e-010 0 -3.6325e-017
Spine  21.7224 -0.562877 -8.94755
Spine1  -2.80444 -5.61049 10.3451
HEad  -18.6005 -37.7138 19.7638
LeftShoulder1  3.12692 -6.40659 -25.4035
LeftArm  50.2191 -40.5987 -93.0891
LeftForeArm  19.5028 -6.24571 -17.8272
LeftHand  -0.0275487 5.59659 0.234112
RightShoulder  15.6548 28.8476 41.7959
RightArm  45.0622 16.1903 22.5598
RightForeArm  12.5356 23.5063 4.40996
RightHand  1.49882 7.99605 12.5275
LeftUpLeg  -105.373 19.5396 -83.9566
LeftLeg  114.437 -4.16503 7.69646
LeftFoot  17.2953 1.45436 -6.11407
LeftToes  1.03528e-008 1.55373e-010 -2.26046e-010
374
root  23.7211 41.0774 -65.7891 19.8932 75.955 26.4778
RightUpLeg  -6.40923 -4.8736 1.80253
RightLeg  24.9344 -1.89704 -1.18451
RightFoot  -1.81988 -1.25739 14.8707
RightToes  -1.16417e-010 0 -3.6325e-017
Spine  22.9123 -0.610128 -6.58383
Spine1  -2.60662 -5.38274 9.6587
HEad  -18.6595 -35.9389 18.6629
LeftShoulder1  3.08188 -6.3245 -25.1999
LeftArm  50.5435 -42.2045 -93.3706
LeftForeArm  17.6975 -6.05438 -17.959
LeftHand  -0.0278616 5.65902 0.345708
RightShoulder  16.0961 30.3245 40.9819
RightArm  43.9192 18.2797 22.5198
RightForeArm  12.9282 22.5998 4.625
RightHand  1.49615 8.11733 12.387
LeftUpLeg  -106.836 20.4157 -83.4294
LeftLeg  112.566 -3.05933 5.99885
LeftFoot  17.6019 1.56307 -6.47449
LeftToes  1.03528e-008 1.55373e-010 -2.26046e-010
375
root  23.8017 40.7821 -65.5487 12.2274 73.1369 18.3029
RightUpLeg  -7.33808 -5.54411 0.904801
RightLeg  25.3149 -11.4855 -6.08211
RightFoot  -7.34197 -0.191339 4.04818
RightToes  -1.16417e-010 0 -3.6325e-017
Spine  23.374 -1.17845 -4.62141
Spine1  -2.16236 -5.75879 9.69616
HEad  -18.2294 -34.2921 17.0231
LeftShoulder1  3.09065 -6.28381 -25.4294
LeftArm  49.7787 -43.423 -93.37
LeftForeArm  17.2953 -5.65187 -18.0866
LeftHand  -0.0289713 5.80225 0.63194
RightShoulder  16.723 31.9912 40.4739
RightArm  41.312 18.6706 22.3218
RightForeArm  15.1915 21.8771 4.92474
RightHand  1.48303 8.31897 12.0866
LeftUpLeg  -106.855 21.7765 -82.8008
LeftLeg  111.094 -1.90106 3.74479
LeftFoot  17.3674 1.46232 -6.13091
LeftToes  1.03528e-008 1.55373e-010 -2.26046e-010
376
root  23.9307 39.9027 -65.2676 9.91919 70.5543 15.6695
RightUpLeg  -7.04902 -5.06614 -0.957016
RightLeg  23.94 -16.9403 -8.26235
RightFoot  -8.73312 -0.162232 4.51663
RightToes  -1.16417e-010 0 -3.6325e-017
Spine  23.2895 -1.47298 -4.63359
Spine1  -1.61743 -5.98207 10.2947
HEad  -17.494 -33.0854 16.0464
LeftShoulder1  3.11477 -6.27167 -25.7276
LeftArm  45.0942 -43.986 -93.389
LeftForeArm  21.7715 -4.13431 -18.2343
LeftHand  -0.0302415 5.84009 0.569515
RightShoulder  16.5082 31.2291 40.8972
RightArm  43.8782 20.0306 21.9347
RightForeArm  14.1016 21.8685 5.01659
RightHand  1.50961 8.23822 12.3848
LeftUpLeg  -106.376 22.7858 -83.2334
LeftLeg  110.563 -1.31676 2.4426
LeftFoot  17.0218 1.06087 -4.61362
LeftToes  1.03528e-008 1.55373e-010 -2.26046e-010
377
root  24.0527 38.7387 -64.9365 4.7905 68.258 10.6342
RightUpLeg  -9.30661 -5.55014 0.75118
RightLeg  30.2999 -11.9928 -7.71085
RightFoot  -17.2902 -0.0303515 1.66848
RightToes  -1.16417e-010 0 -3.6325e-017
Spine  24.0625 -1.9655 -3.81753
Spine1  -1.08681 -5.98967 11.1183
HEad  -16.7809 -32.266 15.1573
LeftShoulder1  3.09473 -6.24169 -25.6154
LeftArm  46.1159 -43.1087 -93.1732
LeftForeArm  21.3836 -4.60161 -18.1598
LeftHand  -0.0310405 5.90771 0.787168
RightShoulder  16.5339 31.0854 41.1591
RightArm  47.3 19.3106 21.7961
RightForeArm  11.9224 23.1683 4.4857
RightHand  1.53007 7.90041 12.8904
LeftUpLeg  -106.014 24.4374 -82.5399
LeftLeg  111.103 -1.32439 2.39
LeftFoot  17.6951 0.670196 -3.01092
LeftToes  1.03528e-008 1.55373e-010 -2.26046e-010
378
root  24.0474 37.5158 -64.5531 -2.21548 65.2409 4.68484
RightUpLeg  -12.692 -2.02781 4.54917
RightLeg  40.5592 -12.0425 -11.1001
RightFoot  -20.7016 -0.081618 0.714763
RightToes  -1.16417e-010 0 -3.6325e-017
Spine  24.8909 -2.65882 -2.79905
Spine1  1.35215 -6.0108 9.8365
HEad  -19.6703 -29.8553 17.289
LeftShoulder1  2.9796 -5.8248 -25.8066
LeftArm  53.0216 -42.3545 -92.1587
LeftForeArm  14.9251 -6.88139 -17.8246
LeftHand  -0.0261614 5.71779 1.26878
RightShoulder  17.5177 31.9535 42.6281
RightArm  47.1116 19.3863 21.1
RightForeArm  11.304 23.1701 4.51703
RightHand  1.5302 7.33809 13.4868
LeftUpLeg  -106.345 27.0891 -81.9661
LeftLeg  111.705 -2.06657 3.99957
LeftFoot  18.1104 -0.501369 1.48088
LeftToes  1.03528e-008 1.55373e-010 -2.26046e-010
379
root  24.3443 36.9017 -64.0259 -2.7522 64.8341 4.858
RightUpLeg  -13.1937 -2.3981 5.32449
RightLeg  44.9544 -11.5248 -12.358
RightFoot  -23.6986 -0.211658 -0.472602
RightToes  -1.16417e-010 0 -3.6325e-017
Spine  22.9989 -3.50299 -5.27588
Spine1  5.19626 -7.60423 11.7167
HEad  -19.4925 -29.0421 15.7589
LeftShoulder1  3.07114 -6.00663 -26.1734
LeftArm  55.0151 -41.7952 -91.8777
LeftForeArm  13.3154 -7.67985 -17.6146
LeftHand  -0.0257796 5.62575 1.5562
RightShoulder  17.2156 31.3553 42.6343
RightArm  46.693 18.6234 21.2901
RightForeArm  10.9927 23.298 4.50816
RightHand  1.57647 7.6499 13.5552
LeftUpLeg  -102.73 30.0542 -82.8439
LeftLeg  111.988 -1.34848 2.33083
LeftFoot  16.1245 -1.61015 6.17452
LeftToes  1.03528e-008 1.55373e-010 -2.26046e-010
